<svg xmlns="http://www.w3.org/2000/svg" xmlns:xlink="http://www.w3.org/1999/xlink" version="1.1" x="0px" y="0px" viewBox="0 0 100 125" enable-background="new 0 0 100 100" xml:space="preserve"><g><path fill="#000000" d="M42.033,41.874c-0.583,0-1.055,0.473-1.055,1.056v11.186c0,0.583,0.472,1.056,1.055,1.056   c0.582,0,1.055-0.473,1.055-1.056V42.929C43.087,42.347,42.615,41.874,42.033,41.874z"/><path fill="#000000" d="M44.836,41.874c-0.583,0-1.055,0.473-1.055,1.056v11.186c0,0.583,0.472,1.056,1.055,1.056   s1.055-0.473,1.055-1.056V42.929C45.891,42.347,45.419,41.874,44.836,41.874z"/><path fill="#000000" d="M47.639,41.874c-0.583,0-1.055,0.473-1.055,1.056v11.186c0,0.583,0.472,1.056,1.055,1.056   s1.055-0.473,1.055-1.056V42.929C48.694,42.347,48.222,41.874,47.639,41.874z"/><path fill="#000000" d="M39.029,41.874h-3.586l-10.914-9.148c-0.141-0.118-0.35-0.1-0.468,0.041c-0.118,0.141-0.1,0.35,0.041,0.468   l8.83,7.401l-0.892,1.237H6.345c-0.69,0-1.255,0.565-1.255,1.256v10.784c0,0.691,0.565,1.257,1.255,1.257h11.137   c0.316,0.893,1.169,1.532,2.171,1.532c1.001,0,1.854-0.64,2.17-1.532h17.206c0.69,0,1.255-0.565,1.255-1.257V43.13   C40.284,42.439,39.719,41.874,39.029,41.874z M38.49,49.444c0,0.69-0.564,1.255-1.255,1.255h-1.092v2.465   c0,0.69-0.565,1.257-1.256,1.257h-3.425c-0.69,0-1.255-0.566-1.255-1.257v-2.465h-13.91v2.465c0,0.69-0.564,1.257-1.255,1.257   h-3.424c-0.69,0-1.256-0.566-1.256-1.257v-2.465H8.029c-0.691,0-1.256-0.565-1.256-1.255v-3.513c0-0.691,0.565-1.256,1.256-1.256   h29.206c0.691,0,1.255,0.565,1.255,1.256V49.444z"/><path fill="#000000" d="M94.311,52.127l0.149-0.531c0,0,0.107-0.877-1.015-4.295c0,0,0.156-0.287,0.053-0.521   c-0.105-0.235-0.704-1.644-0.704-1.644s0.077-0.522-0.601-0.47c0,0-1.252-2.792-6.079-2.792h-0.063H64.767H50.644   c-0.691,0-1.256,0.565-1.256,1.256v10.784c0,0.691,0.564,1.257,1.256,1.257h1.18c0.316,0.893,1.169,1.532,2.171,1.532   s1.854-0.64,2.172-1.532h23.931c0.316,0.893,1.169,1.532,2.171,1.532s1.854-0.64,2.171-1.532h1.612c0.028,0,0.06-0.002,0.088-0.004   h4.983c0,0,2.848-0.085,3.146-0.297c0,0,0.341-0.659,0.447-1.212C94.821,53.106,94.8,52.446,94.311,52.127z M92.828,50.699h-1.579   v2.465c0,0.69-0.564,1.257-1.256,1.257h-3.425c-0.69,0-1.256-0.566-1.256-1.257v-2.465H71.004v2.465   c0,0.69-0.564,1.257-1.255,1.257h-3.425c-0.689,0-1.256-0.566-1.256-1.257v-2.465H52.327c-0.691,0-1.256-0.565-1.256-1.255v-3.513   c0-0.691,0.564-1.256,1.256-1.256h38.375c0.69,0,1.443,0.533,1.674,1.184l1.29,3.657C93.896,50.166,93.519,50.699,92.828,50.699z"/></g><text x="0" y="115" fill="#000000" font-size="5px" font-weight="bold" font-family="'Helvetica Neue', Helvetica, Arial-Unicode, Arial, Sans-serif">Created by Gast</text><text x="0" y="120" fill="#000000" font-size="5px" font-weight="bold" font-family="'Helvetica Neue', Helvetica, Arial-Unicode, Arial, Sans-serif">from the Noun Project</text></svg>