<svg xmlns="http://www.w3.org/2000/svg" xmlns:xlink="http://www.w3.org/1999/xlink" version="1.1" x="0px" y="0px" viewBox="0 0 100 125" enable-background="new 0 0 100 100" xml:space="preserve"><g><path d="M22.604,45.119l-5.741-5.423l5.741-4.34h0.545c0,0,0.343-0.615-0.272-0.615c-0.467-0.011-0.467,0.399-0.467,0.399   l-5.969,4.158c0,0-0.421,0.237,0,0.631s5.426,5.3,5.426,5.3L22.604,45.119z"/><path d="M79.947,62.866c0-1.319,1.071-2.393,2.392-2.393s2.392,1.073,2.392,2.393c0,1.318-1.071,2.393-2.392,2.393   S79.947,64.185,79.947,62.866z M80.973,62.866c0,0.754,0.612,1.368,1.366,1.368c0.755,0,1.368-0.614,1.368-1.368   c0-0.755-0.613-1.367-1.368-1.367C81.585,61.499,80.973,62.111,80.973,62.866z"/><path d="M66.87,62.866c0-1.319,1.074-2.393,2.395-2.393c1.317,0,2.392,1.073,2.392,2.393c0,1.318-1.074,2.393-2.392,2.393   C67.944,65.259,66.87,64.185,66.87,62.866z M67.896,62.866c0,0.754,0.613,1.368,1.368,1.368c0.754,0,1.366-0.614,1.366-1.368   c0-0.755-0.612-1.367-1.366-1.367C68.51,61.499,67.896,62.111,67.896,62.866z"/><path d="M0.429,62.34c0.154,0.159,0.389,0.23,0.759,0.23h11.914c0.504,0,0.66-0.531,0.795-1c0.209-0.717,0.394-1.188,1.027-1.188   h16.906c0.634,0,0.818,0.471,1.027,1.188c0.137,0.469,0.292,1,0.795,1h31.857c0.504,0,0.66-0.531,0.796-1   c0.21-0.717,0.394-1.188,1.026-1.188h16.482c1.532,0,1.548,1.836,1.548,1.914c0,0.563,0.356,0.723,0.545,0.729   c0.005,0,0.311,0.001,0.816,0.001c2.132,0,7.284-0.03,9.077-0.324c1.227-0.199,2.841-0.678,3.569-1.821   c0.4-0.628,0.485-1.372,0.249-2.212c-0.587-2.095-4.793-5.452-7.865-7.906c-0.396-0.316-0.771-0.615-1.111-0.89   c-1.4-1.135-3.174-2.425-5.701-3.398c-2.85-1.096-6.198-1.629-10.234-1.629H28.541c-0.417,0-0.631,0.331-0.788,0.572   c-0.126,0.197-0.211,0.316-0.313,0.316h-2.205c-0.066-0.012-0.22-0.222-0.302-0.336c-0.188-0.26-0.401-0.553-0.732-0.553H22.16   c-0.417,0-0.631,0.331-0.788,0.572c-0.126,0.197-0.211,0.316-0.313,0.316h-2.205c-0.067-0.012-0.22-0.222-0.302-0.336   c-0.188-0.26-0.401-0.553-0.731-0.553h-7.542c-2.093,0-2.714,0.388-3.434,0.838l-0.037,0.023c-0.162,0.101-0.311,0.227-0.468,0.358   c-0.575,0.485-1.364,1.149-3.67,1.149l-0.011,0.001c-0.152,0.004-0.347,0.008-0.596,0.008s-0.506-0.004-0.731-0.005   c-0.173-0.002-0.327-0.004-0.441-0.004c-0.17,0-0.473,0.069-0.584,0.536c-0.053,0.223-0.052,0.479-0.052,0.704v13.033   c0,0.052-0.002,0.103-0.003,0.15C0.245,61.875,0.236,62.142,0.429,62.34z M87.806,50.204l-3.654-1.076v-0.99h2.118l1.23,0.648   L87.806,50.204z M91.982,51.644l-3.629-1.233l-0.309-1.436l1,0.357c0.451,0.327,0.867,0.652,1.256,0.965   c0.341,0.276,0.716,0.576,1.113,0.894C91.598,51.338,91.787,51.488,91.982,51.644z"/><g><path d="M72.052,63.776v-2.301c0-0.357,0.292-0.648,0.651-0.648h6.287c0.359,0,0.648,0.291,0.648,0.648v2.301    c0,0.357-0.289,0.649-0.648,0.649h-6.287C72.344,64.426,72.052,64.134,72.052,63.776z"/></g><path d="M27.391,62.866c0-1.319,1.073-2.393,2.392-2.393c1.319,0,2.393,1.073,2.393,2.393c0,1.318-1.073,2.393-2.393,2.393   C28.464,65.259,27.391,64.185,27.391,62.866z M28.416,62.866c0,0.754,0.614,1.368,1.367,1.368c0.754,0,1.368-0.614,1.368-1.368   c0-0.755-0.613-1.367-1.368-1.367C29.03,61.499,28.416,62.111,28.416,62.866z"/><path d="M14.315,62.866c0-1.319,1.073-2.393,2.393-2.393s2.393,1.073,2.393,2.393c0,1.318-1.073,2.393-2.393,2.393   S14.315,64.185,14.315,62.866z M15.34,62.866c0,0.754,0.614,1.368,1.367,1.368c0.754,0,1.368-0.614,1.368-1.368   c0-0.755-0.614-1.367-1.368-1.367C15.954,61.499,15.34,62.111,15.34,62.866z"/><g><path d="M19.497,63.776v-2.301c0-0.357,0.292-0.648,0.649-0.648h6.288c0.358,0,0.649,0.291,0.649,0.648v2.301    c0,0.357-0.291,0.649-0.649,0.649h-6.288C19.789,64.426,19.497,64.134,19.497,63.776z"/></g></g><text x="0" y="115" fill="#000000" font-size="5px" font-weight="bold" font-family="'Helvetica Neue', Helvetica, Arial-Unicode, Arial, Sans-serif">Created by Toby Fitch</text><text x="0" y="120" fill="#000000" font-size="5px" font-weight="bold" font-family="'Helvetica Neue', Helvetica, Arial-Unicode, Arial, Sans-serif">from the Noun Project</text></svg>